<svg width="642" height="575" viewBox="0 0 642 575" fill="none" xmlns="http://www.w3.org/2000/svg">
<path d="M295.538 0C334.283 4.50224e-07 372.648 7.43641 408.444 21.8846C444.24 36.3329 476.764 57.51 504.161 84.2068C531.558 110.904 553.29 142.597 568.117 177.479C582.944 212.36 590.576 249.745 590.576 287.5L295.538 287.5V0Z" fill="#E9D5FF"/>
<path d="M317.363 324.521C317.363 294.647 329.541 265.998 351.218 244.874C372.895 223.751 402.296 211.884 432.953 211.884V324.521L317.363 324.521Z" fill="#F3E8FF"/>
<mask id="path-3-inside-1_2_852" fill="white">
<path d="M445.886 448.185C430.706 448.185 415.675 445.271 401.651 439.611C387.627 433.95 374.885 425.654 364.151 415.194C353.418 404.735 344.903 392.318 339.094 378.652C333.286 364.986 330.296 350.34 330.296 335.548C330.296 320.756 333.286 306.109 339.095 292.444C344.903 278.778 353.418 266.361 364.151 255.902C374.885 245.442 387.627 237.145 401.651 231.485C415.676 225.824 430.706 222.911 445.886 222.911L445.886 335.548L445.886 448.185Z"/>
</mask>
<path d="M445.886 448.185C430.706 448.185 415.675 445.271 401.651 439.611C387.627 433.95 374.885 425.654 364.151 415.194C353.418 404.735 344.903 392.318 339.094 378.652C333.286 364.986 330.296 350.34 330.296 335.548C330.296 320.756 333.286 306.109 339.095 292.444C344.903 278.778 353.418 266.361 364.151 255.902C374.885 245.442 387.627 237.145 401.651 231.485C415.676 225.824 430.706 222.911 445.886 222.911L445.886 335.548L445.886 448.185Z" stroke="#8B5CF6" stroke-width="10" mask="url(#path-3-inside-1_2_852)"/>
<mask id="path-4-inside-2_2_852" fill="white">
<path d="M445.886 526.164C407.197 526.164 369.377 514.985 337.208 494.04C305.04 473.094 279.968 443.324 265.162 408.494C250.356 373.663 246.483 335.336 254.03 298.361C261.578 261.385 280.209 227.42 307.566 200.762C334.923 174.104 369.778 155.949 407.723 148.594C445.669 141.239 485 145.014 520.744 159.441C556.488 173.869 587.039 198.3 608.533 229.647C630.027 260.994 641.5 297.848 641.5 335.548L445.886 335.548L445.886 526.164Z"/>
</mask>
<path d="M445.886 526.164C407.197 526.164 369.377 514.985 337.208 494.04C305.04 473.094 279.968 443.324 265.162 408.494C250.356 373.663 246.483 335.336 254.03 298.361C261.578 261.385 280.209 227.42 307.566 200.762C334.923 174.104 369.778 155.949 407.723 148.594C445.669 141.239 485 145.014 520.744 159.441C556.488 173.869 587.039 198.3 608.533 229.647C630.027 260.994 641.5 297.848 641.5 335.548L445.886 335.548L445.886 526.164Z" stroke="#C4B5FD" stroke-width="6" mask="url(#path-4-inside-2_2_852)"/>
</svg>
