<svg data-v-0dd9719b="" version="1.0" xmlns="http://www.w3.org/2000/svg"
  xmlns:xlink="http://www.w3.org/1999/xlink" preserveAspectRatio="none"
  color-interpolation-filters="sRGB">
  <g fill="#2D336B" width="100%" height="100%">
    <g>
      <rect data-gra="graph-name" height="10" width="10" x="0" y="45.70000457763672"></rect>
      <rect data-gra="graph-name" height="10" width="10" x="237.7100067138672" y="0"></rect>  
      <g fill-opacity="1">
        <g>
          <rect data-gra="graph-name-bg" stroke-width="2" class="i-icon-bg" x="0" y="0"
            width="247.7100067138672" height="55.70000457763672" rx="10" ry="10"></rect>  
        </g>
        <g transform="translate(10,10)">
          <g data-gra="path-name" fill="#ffffff" fill-opacity="1"
            transform="matrix(1,0,0,1,0,0)" opacity="1">
            <g transform="scale(1)">
              <g>
                <path
                  d="M9.87 0.33C16.07 0.33 18.03-3.76 18.03-10.2 18.03-15.06 16.09-17.35 13.58-19.79L9.51-23.7C8.2-24.93 7.55-26.11 7.55-27.25 7.55-28.3 8.11-28.92 9.18-28.92 10.1-28.92 10.65-28.34 10.65-27.41L10.69-25.01 17.83-25.01C17.83-31.81 15.54-35.37 8.93-35.37 3.41-35.37 0.86-31.88 0.86-26.19 0.86-23.42 2.03-20.89 4.37-18.6L7.38-15.58C8.47-14.52 9.23-13.74 9.65-13.24 10.58-12.13 11.1-10.66 11.1-8.53 11.1-6.99 10.83-6.12 9.42-6.12 8.31-6.12 7.75-6.99 7.75-8.73L7.75-13.1 0.86-13.1 0.86-9.67C0.86-2.9 3.26 0.33 9.87 0.33ZM26.39 0.33C27.64 0.33 29.52 0.04 30.43-0.2L30.43-5.1C30.13-5.1 29.55-5.02 29.17-5.02 28.38-5.02 28.39-5.65 28.39-6.53L28.39-23.29 30.43-23.29 30.43-28.72 28.39-28.72 28.39-35.04 21.46-35.04 21.46-28.72 19.46-28.72 19.46-23.29 21.46-23.29 21.46-4.65C21.46-1.06 22.72 0.33 26.39 0.33ZM38.43 0.33C41.29 0.33 42.17-0.95 43.04-3.18L43.04 0 50.18 0 50.18-29.86 43.08-29.86 43.04-9.06 43.04-8.81C43.04-6.95 43.03-5.26 41.37-5.26 40.09-5.26 39.77-6.11 39.77-7.53L39.77-29.86 32.59-29.86 32.59-7.63C32.59-2.71 33.69 0.33 38.43 0.33ZM58.91 0.33C61.51 0.33 62.63-1.11 63.35-3.18L63.35 0 70.49 0 70.49-35.25 63.35-35.25 63.35-28.27C62.4-29.55 60.96-30.19 59.03-30.19 55-30.19 52.87-27.05 52.87-22.97L52.79-9.51C52.79-3.93 53.44 0.33 58.91 0.33ZM61.64-5.26C60.5-5.26 59.93-6.51 59.93-9.02L59.93-21.58C59.93-23.24 60.13-24.68 61.68-24.68 63.07-24.68 63.35-23.06 63.35-21.58L63.35-9.1C63.35-7.26 63.27-5.26 61.64-5.26ZM81.71 0.33C88.45 0.33 90.69-3.02 90.69-9.83L90.69-11.54 83.59-11.54 83.59-8.65C83.59-6.84 83.68-5.18 81.96-5.18 80.37-5.18 80.24-6.75 80.24-8.49L80.24-14.28 90.6-14.28C90.66-15.64 90.69-17.41 90.69-19.58L90.69-21.74C90.69-27.37 87.82-30.19 82.08-30.19 76.5-30.19 73.1-27.29 73.1-21.74L73.1-9.75C73.1-3.29 75.36 0.33 81.71 0.33ZM83.59-17.83L80.2-17.83 80.2-21.66C80.2-23.81 80.8-24.88 82-24.88 83.06-24.88 83.59-23.81 83.59-21.66ZM102.19-24.68C103.35-24.68 103.78-23.51 103.78-22.31L103.78 0 110.8 0 110.8-23.05C110.8-27.38 109.1-30.19 104.88-30.19 102.25-30.19 100.94-28.28 100.4-26.07L100.4-29.86 93.26-29.86 93.26 0 100.4 0 100.4-21.01C100.4-22.84 100.53-24.68 102.19-24.68ZM119.77 0.33C121.01 0.33 122.9 0.04 123.81-0.2L123.81-5.1C123.51-5.1 122.93-5.02 122.55-5.02 121.76-5.02 121.77-5.65 121.77-6.53L121.77-23.29 123.81-23.29 123.81-28.72 121.77-28.72 121.77-35.04 114.84-35.04 114.84-28.72 112.84-28.72 112.84-23.29 114.84-23.29 114.84-4.65C114.84-1.06 116.1 0.33 119.77 0.33ZM152.78-24.4C152.78-30.75 151.04-35.04 144.98-35.04L135.72-35.04 135.72 0 142.62 0 142.62-13.87 145.47-13.87C151.44-13.87 152.78-18.09 152.78-24.4ZM145.84-24.52C145.84-21.81 145.66-20.19 143.03-20.19L142.62-20.19 142.62-28.68 143.39-28.68C145.63-28.68 145.84-27.01 145.84-24.52ZM163.55-30.19C157.97-30.19 154.61-26.52 154.61-20.93L154.61-8.93C154.61-2.76 157.59 0.33 163.55 0.33 169.5 0.33 172.48-2.76 172.48-8.93L172.48-20.93C172.48-26.52 169.12-30.19 163.55-30.19ZM163.55-5.18C162.31-5.18 161.87-6.18 161.87-7.47L161.87-22.07C161.87-23.81 162.43-24.68 163.55-24.68 164.66-24.68 165.22-23.81 165.22-22.07L165.22-7.47C165.22-6.18 164.78-5.18 163.55-5.18ZM187.41-24.27L187.41-30.23C184.65-30.23 182.93-28.75 182.27-26.56L182.27-29.86 175.13-29.86 175.13 0 182.27 0 182.27-22.84C182.27-23.82 186.26-24.27 187.41-24.27ZM195.32 0.33C196.57 0.33 198.45 0.04 199.36-0.2L199.36-5.1C199.06-5.1 198.48-5.02 198.1-5.02 197.31-5.02 197.32-5.65 197.32-6.53L197.32-23.29 199.36-23.29 199.36-28.72 197.32-28.72 197.32-35.04 190.39-35.04 190.39-28.72 188.39-28.72 188.39-23.29 190.39-23.29 190.39-4.65C190.39-1.06 191.65 0.33 195.32 0.33ZM207.03 0.33C209.48 0.33 210.88-1.47 211.48-3.55L211.48 0 218.58 0 218.58-22.76C218.58-27.57 215.05-30.19 210.21-30.19 204.13-30.19 201.44-28.04 201.44-22.03L201.44-21.05 208.38-21.05 208.38-22.84C208.38-23.84 208.9-24.8 209.81-24.8 210.9-24.8 211.4-23.61 211.4-22.36L211.4-19.3 209.44-18.64C207.21-17.94 205.55-17.29 204.46-16.71 201.95-15.36 201-12.74 201-8.57 201-3.36 202.06 0.33 207.03 0.33ZM209.85-5.22C208.79-5.22 208.26-6.11 208.26-7.87L208.26-11.71C208.26-14.17 209.45-15.14 211.36-15.87L211.36-7.55C211.36-6.36 211-5.22 209.85-5.22ZM221.31 0L228.57 0 228.57-35.25 221.31-35.25Z"
                  transform="translate(-0.8600000143051147, 35.369998931884766)"></path>
              </g> 
            </g>
          </g>
        </g>
      </g> 
    </g>
  </g>
</svg>