<svg width="613.3921997070312px" height="120.8px" xmlns="http://www.w3.org/2000/svg" viewBox="-56.69609985351559 14.600000000000001 613.3921997070312 120.8" style="background:#596886" preserveAspectRatio="xMidYMid"><defs><filter id="editing-hover" x="-100%" y="-100%" width="300%" height="300%"><feFlood flood-color="#052b4a" result="flood"></feFlood><feComposite operator="in" in2="SourceAlpha" in="flood" result="shadow"></feComposite><feOffset dx="-4" dy="-4" in="SourceGraphic" result="offset-1"></feOffset><feOffset dx="4" dy="4" in="shadow" result="offset-2"></feOffset><feMerge><feMergeNode in="offset-2"></feMergeNode><feMergeNode in="offset-1"></feMergeNode></feMerge></filter></defs><g filter="url(#editing-hover)"><g transform="translate(32.74272644519806, 98.68000221252441)"><path d="M26.05-29.57L26.05-29.57L26.05-29.57Q27.01-31.49 27.01-33.28L27.01-33.28L27.01-33.28Q27.01-35.07 26.82-36.06L26.82-36.06L26.82-36.06Q26.62-37.06 26.18-37.82L26.18-37.82L26.18-37.82Q25.22-39.49 23.30-39.49L23.30-39.49L23.30-39.49Q20.93-39.49 19.01-37.76L19.01-37.76L19.01-37.76Q16.96-35.97 16.96-33.15L16.96-33.15L16.96-33.15Q16.96-31.36 18.21-29.98L18.21-29.98L18.21-29.98Q19.46-28.61 21.38-27.33L21.38-27.33L21.38-27.33Q23.30-26.05 25.47-24.77L25.47-24.77L25.47-24.77Q27.65-23.49 29.57-21.95L29.57-21.95L29.57-21.95Q33.98-18.43 33.98-13.70L33.98-13.70L33.98-13.70Q33.98-10.50 32.29-7.78L32.29-7.78L32.29-7.78Q30.59-5.06 27.78-3.07L27.78-3.07L27.78-3.07Q21.63 1.28 13.50 1.28L13.50 1.28L13.50 1.28Q6.91 1.28 3.52-0.86L3.52-0.86L3.52-0.86Q0.13-3.01 0.13-6.27L0.13-6.27L0.13-6.27Q0.13-12.10 4.67-13.57L4.67-13.57L4.67-13.57Q5.95-14.02 7.90-14.02L7.90-14.02L7.90-14.02Q9.86-14.02 12.10-13.18L12.10-13.18L12.10-13.18Q11.07-10.56 11.07-8.19L11.07-8.19L11.07-8.19Q11.07-3.07 14.72-3.07L14.72-3.07L14.72-3.07Q17.09-3.07 19.04-4.80L19.04-4.80L19.04-4.80Q20.99-6.53 20.99-8.48L20.99-8.48L20.99-8.48Q20.99-10.43 19.74-11.84L19.74-11.84L19.74-11.84Q18.50-13.25 16.64-14.37L16.64-14.37L16.64-14.37Q14.78-15.49 12.64-16.58L12.64-16.58L12.64-16.58Q10.50-17.66 8.64-19.20L8.64-19.20L8.64-19.20Q4.29-22.72 4.29-28.35L4.29-28.35L4.29-28.35Q4.29-32 6.08-34.85L6.08-34.85L6.08-34.85Q7.87-37.70 10.75-39.62L10.75-39.62L10.75-39.62Q16.51-43.52 23.58-43.52L23.58-43.52L23.58-43.52Q30.66-43.52 34.08-41.41L34.08-41.41L34.08-41.41Q37.50-39.30 37.50-35.71L37.50-35.71L37.50-35.71Q37.50-32.58 35.07-30.59L35.07-30.59L35.07-30.59Q32.96-28.93 30.40-28.93L30.40-28.93L30.40-28.93Q27.84-28.93 26.05-29.57ZM39.87-6.40L39.87-6.40L39.87-6.40Q39.87-8.13 40.77-12.48L40.77-12.48L44.16-29.76L40.38-29.76L40.64-31.68L40.64-31.68Q48.32-33.98 55.74-39.62L55.74-39.62L58.82-39.62L57.28-32.64L62.27-32.64L61.70-29.76L56.77-29.76L53.50-12.48L53.50-12.48Q52.67-8.51 52.67-7.17L52.67-7.17L52.67-7.17Q52.67-4.10 55.36-3.46L55.36-3.46L55.36-3.46Q54.72-1.28 52.42 0L52.42 0L52.42 0Q50.11 1.28 46.85 1.28L46.85 1.28L46.85 1.28Q43.58 1.28 41.73-0.77L41.73-0.77L41.73-0.77Q39.87-2.82 39.87-6.40ZM82.50-2.69L82.50-2.69L82.50-2.69Q79.42 1.28 71.81 1.28L71.81 1.28L71.81 1.28Q67.84 1.28 64.96-1.12L64.96-1.12L64.96-1.12Q62.08-3.52 62.08-6.98L62.08-6.98L62.08-6.98Q62.08-8.90 62.27-9.86L62.27-9.86L66.56-32.64L79.55-33.92L74.88-9.22L74.88-9.22Q74.62-7.81 74.62-6.98L74.62-6.98L74.62-6.98Q74.62-3.26 76.86-3.26L76.86-3.26L76.86-3.26Q79.36-3.26 81.15-6.66L81.15-6.66L81.15-6.66Q81.73-7.74 81.98-9.15L81.98-9.15L86.53-32.64L99.14-33.92L94.40-8.96L94.40-8.96Q94.21-8 94.21-6.98L94.21-6.98L94.21-6.98Q94.21-5.95 94.78-4.83L94.78-4.83L94.78-4.83Q95.36-3.71 97.22-3.46L97.22-3.46L97.22-3.46Q96.83-1.92 95.49-0.90L95.49-0.90L95.49-0.90Q92.67 1.28 89.63 1.28L89.63 1.28L89.63 1.28Q86.59 1.28 84.80 0.19L84.80 0.19L84.80 0.19Q83.01-0.90 82.50-2.69ZM122.50-33.92L122.50-33.92L122.50-33.92Q124.80-33.92 126.59-33.41L126.59-33.41L126.59-33.41Q126.66-33.66 126.78-34.37L126.78-34.37L127.10-36.35L127.10-36.35Q127.36-37.63 127.74-39.74L127.74-39.74L128.77-44.80L141.50-46.08L134.40-8.96L134.40-8.96Q134.34-8.58 134.34-7.94L134.34-7.94L134.34-6.91L134.34-6.91Q134.34-5.50 135.04-4.45L135.04-4.45L135.04-4.45Q135.74-3.39 136.90-3.39L136.90-3.39L136.90-3.39Q135.62-0.38 131.71 0.90L131.71 0.90L131.71 0.90Q130.37 1.28 128.48 1.28L128.48 1.28L128.48 1.28Q126.59 1.28 124.86 0.29L124.86 0.29L124.86 0.29Q123.14-0.70 122.62-2.37L122.62-2.37L122.62-2.37Q121.60-0.70 119.55 0.29L119.55 0.29L119.55 0.29Q117.50 1.28 114.53 1.28L114.53 1.28L114.53 1.28Q111.55 1.28 109.09 0.51L109.09 0.51L109.09 0.51Q106.62-0.26 105.09-1.92L105.09-1.92L105.09-1.92Q102.27-5.18 102.27-12.61L102.27-12.61L102.27-12.61Q102.27-22.21 107.90-28.03L107.90-28.03L107.90-28.03Q113.54-33.92 122.50-33.92ZM122.05-30.08L122.05-30.08L122.05-30.08Q119.68-30.08 118.40-27.52L118.40-27.52L118.40-27.52Q117.12-24.96 115.81-18.62L115.81-18.62L115.81-18.62Q114.50-12.29 114.50-6.59L114.50-6.59L114.50-6.59Q114.50-2.69 116.80-2.69L116.80-2.69L116.80-2.69Q118.85-2.69 120.29-4.74L120.29-4.74L120.29-4.74Q121.73-6.78 122.30-10.18L122.30-10.18L125.76-28.93L125.76-28.93Q124.42-30.08 122.05-30.08ZM168.26-10.82L168.26-10.82L168.26-10.82Q169.86-9.73 169.86-7.33L169.86-7.33L169.86-7.33Q169.86-4.93 168.64-3.39L168.64-3.39L168.64-3.39Q167.42-1.86 165.44-0.83L165.44-0.83L165.44-0.83Q161.34 1.28 156.93 1.28L156.93 1.28L156.93 1.28Q152.51 1.28 149.92 0.32L149.92 0.32L149.92 0.32Q147.33-0.64 145.60-2.43L145.60-2.43L145.60-2.43Q142.21-5.82 142.21-12.03L142.21-12.03L142.21-12.03Q142.21-21.70 147.46-27.58L147.46-27.58L147.46-27.58Q153.09-33.92 162.88-33.92L162.88-33.92L162.88-33.92Q168.96-33.92 171.97-31.36L171.97-31.36L171.97-31.36Q174.21-29.44 174.21-26.30L174.21-26.30L174.21-26.30Q174.21-15.04 154.75-15.04L154.75-15.04L154.75-15.04Q154.50-13.38 154.50-11.97L154.50-11.97L154.50-11.97Q154.50-9.02 155.81-7.90L155.81-7.90L155.81-7.90Q157.12-6.78 159.55-6.78L159.55-6.78L159.55-6.78Q161.98-6.78 164.58-7.90L164.58-7.90L164.58-7.90Q167.17-9.02 168.26-10.82ZM155.20-17.79L155.20-17.79L155.20-17.79Q159.74-17.79 162.37-20.61L162.37-20.61L162.37-20.61Q164.99-23.30 164.99-27.58L164.99-27.58L164.99-27.58Q164.99-29.06 164.45-29.86L164.45-29.86L164.45-29.86Q163.90-30.66 162.82-30.66L162.82-30.66L162.82-30.66Q161.73-30.66 160.80-30.24L160.80-30.24L160.80-30.24Q159.87-29.82 158.91-28.42L158.91-28.42L158.91-28.42Q156.54-25.22 155.20-17.79ZM203.46 1.28L203.46 1.28L203.46 1.28Q195.71 1.28 195.71-4.74L195.71-4.74L195.71-4.74Q195.78-6.40 196.29-9.22L196.29-9.22L197.44-15.10L197.44-15.10Q199.17-23.42 199.17-25.28L199.17-25.28L199.17-25.28Q199.17-28.99 196.99-28.99L196.99-28.99L196.99-28.99Q193.34-28.99 191.42-19.46L191.42-19.46L187.65 0L174.78 1.28L181.44-32.70L191.94-33.92L190.91-27.65L190.91-27.65Q193.92-33.92 203.14-33.92L203.14-33.92L203.14-33.92Q207.62-33.92 209.50-32.03L209.50-32.03L209.50-32.03Q211.39-30.14 211.39-25.92L211.39-25.92L211.39-25.92Q211.39-21.95 209.34-12.67L209.34-12.67L209.34-12.67Q208.38-8.51 208.38-6.94L208.38-6.94L208.38-6.94Q208.38-5.38 209.25-4.48L209.25-4.48L209.25-4.48Q210.11-3.58 211.39-3.46L211.39-3.46L211.39-3.46Q210.75-1.28 208.54 0L208.54 0L208.54 0Q206.34 1.28 203.46 1.28ZM217.54-6.40L217.54-6.40L217.54-6.40Q217.54-8.13 218.43-12.48L218.43-12.48L221.82-29.76L218.05-29.76L218.30-31.68L218.30-31.68Q225.98-33.98 233.41-39.62L233.41-39.62L236.48-39.62L234.94-32.64L239.94-32.64L239.36-29.76L234.43-29.76L231.17-12.48L231.17-12.48Q230.34-8.51 230.34-7.17L230.34-7.17L230.34-7.17Q230.34-4.10 233.02-3.46L233.02-3.46L233.02-3.46Q232.38-1.28 230.08 0L230.08 0L230.08 0Q227.78 1.28 224.51 1.28L224.51 1.28L224.51 1.28Q221.25 1.28 219.39-0.77L219.39-0.77L219.39-0.77Q217.54-2.82 217.54-6.40ZM264.64-42.69L264.64-42.69L264.64-42.69Q280.32-42.69 280.32-31.62L280.32-31.62L280.32-31.62Q280.32-25.54 276.42-21.89L276.42-21.89L276.42-21.89Q272.58-18.24 265.86-18.24L265.86-18.24L265.86-18.24Q262.72-18.24 260.29-20.03L260.29-20.03L260.29-20.03Q259.14-20.80 258.37-21.82L258.37-21.82L258.37-21.82Q263.04-21.82 265.50-24.67L265.50-24.67L265.50-24.67Q267.97-27.52 267.97-33.09L267.97-33.09L267.97-33.09Q267.97-38.66 262.46-38.66L262.46-38.66L260.93-38.66L260.93-38.66Q260.54-38.66 260.22-38.59L260.22-38.59L252.86 0L238.98 0L246.85-41.92L246.85-41.92Q253.70-42.56 257.66-42.62L257.66-42.62L257.66-42.62Q261.63-42.69 264.64-42.69ZM294.59 1.28L294.59 1.28L294.59 1.28Q280.51 1.28 280.51-11.97L280.51-11.97L280.51-11.97Q280.51-21.38 285.70-27.46L285.70-27.46L285.70-27.46Q291.20-33.92 300.74-33.92L300.74-33.92L300.74-33.92Q307.65-33.92 311.17-30.72L311.17-30.72L311.17-30.72Q314.69-27.52 314.69-20.80L314.69-20.80L314.69-20.80Q314.69-10.56 309.18-4.61L309.18-4.61L309.18-4.61Q303.81 1.28 294.59 1.28ZM296.26-26.56L296.26-26.56L296.26-26.56Q295.49-24.83 294.88-22.24L294.88-22.24L294.88-22.24Q294.27-19.65 293.50-15.55L293.50-15.55L293.50-15.55Q292.74-11.46 292.74-6.40L292.74-6.40L292.74-6.40Q292.74-4.74 293.28-3.65L293.28-3.65L293.28-3.65Q293.82-2.56 295.30-2.56L295.30-2.56L295.30-2.56Q296.77-2.56 297.70-3.26L297.70-3.26L297.70-3.26Q298.62-3.97 299.33-5.63L299.33-5.63L299.33-5.63Q300.61-8.58 301.63-14.05L301.63-14.05L301.63-14.05Q302.66-19.52 302.75-21.89L302.75-21.89L302.75-21.89Q302.85-24.26 302.85-26.02L302.85-26.02L302.85-26.02Q302.85-27.78 302.34-28.93L302.34-28.93L302.34-28.93Q301.82-30.08 300.38-30.08L300.38-30.08L300.38-30.08Q298.94-30.08 297.98-29.18L297.98-29.18L297.98-29.18Q297.02-28.29 296.26-26.56ZM338.50-17.98L338.50-17.98L338.50-17.98Q340.80-22.08 340.80-26.24L340.80-26.24L340.80-26.24Q340.80-28.99 338.82-28.99L338.82-28.99L338.82-28.99Q337.28-28.99 335.68-26.37L335.68-26.37L335.68-26.37Q334.02-23.74 333.50-20.35L333.50-20.35L330.18 0L316.93 1.28L323.46-32.64L334.02-33.92L332.86-27.46L332.86-27.46Q336-33.92 343.04-33.92L343.04-33.92L343.04-33.92Q346.75-33.92 348.77-32L348.77-32L348.77-32Q350.78-30.08 350.78-26.14L350.78-26.14L350.78-26.14Q350.78-22.21 348.19-19.71L348.19-19.71L348.19-19.71Q345.60-17.22 341.18-17.22L341.18-17.22L341.18-17.22Q339.26-17.22 338.50-17.98ZM352.83-6.40L352.83-6.40L352.83-6.40Q352.83-8.13 353.73-12.48L353.73-12.48L357.12-29.76L353.34-29.76L353.60-31.68L353.60-31.68Q361.28-33.98 368.70-39.62L368.70-39.62L371.78-39.62L370.24-32.64L375.23-32.64L374.66-29.76L369.73-29.76L366.46-12.48L366.46-12.48Q365.63-8.51 365.63-7.17L365.63-7.17L365.63-7.17Q365.63-4.10 368.32-3.46L368.32-3.46L368.32-3.46Q367.68-1.28 365.38 0L365.38 0L365.38 0Q363.07 1.28 359.81 1.28L359.81 1.28L359.81 1.28Q356.54 1.28 354.69-0.77L354.69-0.77L354.69-0.77Q352.83-2.82 352.83-6.40ZM377.44-1.92L377.44-1.92L377.44-1.92Q375.94-3.58 375.26-6.21L375.26-6.21L375.26-6.21Q374.59-8.83 374.59-13.12L374.59-13.12L374.59-13.12Q374.59-17.41 376.06-21.31L376.06-21.31L376.06-21.31Q377.54-25.22 380.22-28.03L380.22-28.03L380.22-28.03Q385.73-33.92 394.82-33.92L394.82-33.92L394.82-33.92Q398.08-33.92 400.45-32.83L400.45-32.83L411.39-33.92L406.66-8.96L406.66-8.96Q406.46-8.19 406.46-6.78L406.46-6.78L406.46-6.78Q406.46-5.38 407.33-4.48L407.33-4.48L407.33-4.48Q408.19-3.58 409.47-3.46L409.47-3.46L409.47-3.46Q408.83-1.28 406.50 0L406.50 0L406.50 0Q404.16 1.28 401.54 1.28L401.54 1.28L401.54 1.28Q398.91 1.28 397.15 0.29L397.15 0.29L397.15 0.29Q395.39-0.70 394.88-2.37L394.88-2.37L394.88-2.37Q393.86-0.77 391.68 0.26L391.68 0.26L391.68 0.26Q389.50 1.28 386.59 1.28L386.59 1.28L386.59 1.28Q383.68 1.28 381.31 0.51L381.31 0.51L381.31 0.51Q378.94-0.26 377.44-1.92ZM390.94-27.90L390.94-27.90L390.94-27.90Q390.21-26.75 389.57-24.80L389.57-24.80L389.57-24.80Q388.93-22.85 387.87-17.63L387.87-17.63L387.87-17.63Q386.82-12.42 386.82-8.70L386.82-8.70L386.82-8.70Q386.82-4.99 387.39-3.90L387.39-3.90L387.39-3.90Q387.97-2.82 388.99-2.82L388.99-2.82L388.99-2.82Q391.04-2.82 392.54-4.77L392.54-4.77L392.54-4.77Q394.05-6.72 394.62-10.18L394.62-10.18L398.02-28.93L398.02-28.93Q396.67-30.08 395.10-30.08L395.10-30.08L395.10-30.08Q393.54-30.08 392.61-29.57L392.61-29.57L392.61-29.57Q391.68-29.06 390.94-27.90ZM430.14-3.52L430.14-3.52L430.14-3.52Q428.16 1.28 421.82 1.28L421.82 1.28L421.82 1.28Q418.62 1.28 416.58-0.96L416.58-0.96L416.58-0.96Q414.91-2.82 414.91-4.93L414.91-4.93L414.91-4.93Q414.91-9.73 417.15-20.22L417.15-20.22L421.82-44.80L434.82-46.08L428.61-13.70L428.61-13.70Q427.52-8.96 427.52-7.30L427.52-7.30L427.52-7.30Q427.52-3.65 430.14-3.52Z" fill="#ffd5af"></path></g></g><style>text {
  font-size: 64px;
  font-family: Arial Black;
  dominant-baseline: central;
  text-anchor: middle;
}</style></svg>